<svg xmlns="http://www.w3.org/2000/svg" viewBox="0 0 192 192" fill="none">
  <rect width="192" height="192" rx="48" fill="#F6F7F4"/>
  <rect x="22" y="22" width="148" height="148" rx="34" fill="white"/>
  <rect x="38" y="38" width="116" height="116" rx="28" fill="#E7F0FF"/>
  <path d="m47 82 49-24 49 24-49 24-49-24Z" fill="#2F6FED" fill-opacity=".14" stroke="#2F6FED" stroke-linecap="round" stroke-linejoin="round" stroke-width="6"/>
  <path d="M66 92v16c0 6 14 14 30 14s30-8 30-14V92" stroke="#2F6FED" stroke-linecap="round" stroke-linejoin="round" stroke-width="6"/>
  <path d="M137 85v28" stroke="#2F6FED" stroke-linecap="round" stroke-width="6"/>
  <path d="M137 113c5 3 8 7 8 11 0 6-7 10-16 10s-16-4-16-10c0-4 3-8 8-11" fill="#2F6FED" fill-opacity=".12" stroke="#2F6FED" stroke-linecap="round" stroke-linejoin="round" stroke-width="5"/>
</svg>
