<svg xmlns="http://www.w3.org/2000/svg" viewBox="0 0 512 512" fill="none">
  <rect width="512" height="512" rx="140" fill="#F6F7F4"/>
  <rect x="56" y="56" width="400" height="400" rx="96" fill="white"/>
  <path d="M162 144H266C334.484 144 390 199.516 390 268V268C390 336.484 334.484 392 266 392H162V144Z" fill="#E7F0FF"/>
  <path d="M162 144H230C298.484 144 354 199.516 354 268V268C354 336.484 298.484 392 230 392H162V144Z" fill="#2F6FED"/>
  <path d="M206 206H239.6C272.958 206 300 233.042 300 266.4V266.4C300 299.758 272.958 326.8 239.6 326.8H206V206Z" fill="white"/>
  <path d="M206 331H258.8C293.012 331 320.75 358.738 320.75 392.95V392.95H206V331Z" fill="#17212B" fill-opacity=".12"/>
</svg>
