<svg xmlns="http://www.w3.org/2000/svg" viewBox="0 0 512 512" fill="none">
  <rect width="512" height="512" rx="128" fill="#F6F7F4"/>
  <rect x="72" y="72" width="368" height="368" rx="88" fill="white"/>
  <rect x="108" y="108" width="296" height="296" rx="72" fill="#E7F0FF"/>
  <path d="m138 224 118-58 118 58-118 58-118-58Z" fill="#2F6FED" fill-opacity=".14" stroke="#2F6FED" stroke-linecap="round" stroke-linejoin="round" stroke-width="15"/>
  <path d="M183 251v40c0 15 33 35 73 35s73-20 73-35v-40" stroke="#2F6FED" stroke-linecap="round" stroke-linejoin="round" stroke-width="15"/>
  <path d="M355 231v67" stroke="#2F6FED" stroke-linecap="round" stroke-width="15"/>
  <path d="M355 298c13 8 19 17 19 26 0 14-17 24-38 24s-38-10-38-24c0-9 6-18 19-26" fill="#2F6FED" fill-opacity=".12" stroke="#2F6FED" stroke-linecap="round" stroke-linejoin="round" stroke-width="12"/>
</svg>
