<svg xmlns="http://www.w3.org/2000/svg" viewBox="0 0 512 512" fill="none">
  <rect width="512" height="512" rx="140" fill="#F6F7F4"/>
  <rect x="56" y="56" width="400" height="400" rx="96" fill="white"/>
  <rect x="96" y="96" width="320" height="320" rx="76" fill="#E7F0FF"/>
  <path d="m128 218 128-62 128 62-128 62-128-62Z" fill="#2F6FED" fill-opacity=".14" stroke="#2F6FED" stroke-linecap="round" stroke-linejoin="round" stroke-width="16"/>
  <path d="M177 246v43c0 16 36 38 79 38s79-22 79-38v-43" stroke="#2F6FED" stroke-linecap="round" stroke-linejoin="round" stroke-width="16"/>
  <path d="M364 226v72" stroke="#2F6FED" stroke-linecap="round" stroke-width="16"/>
  <path d="M364 298c14 9 21 18 21 28 0 15-18 26-42 26s-42-11-42-26c0-10 7-19 21-28" fill="#2F6FED" fill-opacity=".12" stroke="#2F6FED" stroke-linecap="round" stroke-linejoin="round" stroke-width="13"/>
</svg>
